<svg xmlns="http://www.w3.org/2000/svg" xmlns:xlink="http://www.w3.org/1999/xlink" width="60" height="60" viewBox="0 0 60 60">
    <defs>
        <path id="a" d="M28.307.172c.396-.016.794-.024 1.193-.024 16.292 0 29.5 13.208 29.5 29.5 0 16.293-13.208 29.5-29.5 29.5S0 45.941 0 29.648c0-4.928 1.209-9.575 3.346-13.658l.908.42A28.376 28.376 0 0 0 1 29.648c0 15.74 12.76 28.5 28.5 28.5S58 45.388 58 29.648s-12.76-28.5-28.5-28.5c-.4 0-.797.009-1.193.025v-1z"/>
    </defs>
    <g fill="none" fill-rule="evenodd">
        <path fill="#4999F7" fill-rule="nonzero" d="M28.807 1h1.07v4.813a.535.535 0 1 1-1.07 0V1zM29.342 53.406c.296 0 .535.24.535.535v4.813h-1.07v-4.813c0-.295.24-.535.535-.535z"/>
        <path fill="#4999F7" fill-rule="nonzero" d="M28.807 1h1v4.522a.5.5 0 1 1-1 0V1zM29.307 53.732a.5.5 0 0 1 .5.5v4.522h-1v-4.522a.5.5 0 0 1 .5-.5z"/>
        <use fill="#4999F7" fill-rule="nonzero" transform="translate(.5 .352)" xlink:href="#a"/>
        <g fill="#4999F7" fill-rule="nonzero">
            <path d="M3.79 17.429l.47-.883 3.993 2.123a.5.5 0 0 1-.47.883l-3.992-2.123zM50.585 41.743a.5.5 0 0 1 .676-.206l3.993 2.123-.47.882-3.992-2.122a.5.5 0 0 1-.207-.677z"/>
        </g>
        <path fill="#4999F7" fill-rule="nonzero" d="M41.516 50.714a.5.5 0 0 1 .686.17l2.329 3.877-.857.515-2.33-3.876a.5.5 0 0 1 .172-.686z"/>
        <g fill="#4999F7" fill-rule="nonzero">
            <path d="M42.325 3.79l.883.47-2.123 3.993a.5.5 0 0 1-.883-.47l2.123-3.992zM18.01 50.585a.5.5 0 0 1 .207.676l-2.123 3.993-.882-.47 2.123-3.992a.5.5 0 0 1 .676-.207z"/>
        </g>
        <g fill="#4999F7" fill-rule="nonzero">
            <path d="M53.115 12.688l.56.83-3.75 2.528a.5.5 0 0 1-.559-.829l3.749-2.529zM9.678 42.59a.5.5 0 0 1-.135.694l-3.749 2.529-.56-.83 3.75-2.528a.5.5 0 0 1 .694.135z"/>
        </g>
        <g fill="#4999F7" fill-rule="nonzero">
            <path d="M1 30.947v-1h4.522a.5.5 0 0 1 0 1H1zM53.732 30.447a.5.5 0 0 1 .5-.5h4.522v1h-4.522a.5.5 0 0 1-.5-.5z"/>
        </g>
    </g>
</svg>
